<svg width="28" height="27" viewBox="0 0 28 27" fill="none" xmlns="http://www.w3.org/2000/svg">
<path d="M16.7922 9.95312C15.3112 9.95312 13.8907 10.551 12.8437 11.6154C11.7965 12.6799 11.208 14.1234 11.208 15.6287C11.208 17.134 11.7965 18.5776 12.8437 19.642C13.8907 20.7064 15.3112 21.3043 16.7922 21.3043C18.2732 21.3043 19.6934 20.7064 20.7407 19.642C21.7879 18.5776 22.3762 17.134 22.3762 15.6287C22.3762 14.1234 21.7879 12.6799 20.7407 11.6154C19.6934 10.551 18.2732 9.95312 16.7922 9.95312ZM16.7922 18.4666C16.0516 18.4666 15.3416 18.1676 14.8179 17.6355C14.2943 17.1031 14.0001 16.3813 14.0001 15.6287C14.0001 14.8762 14.2943 14.1543 14.8179 13.622C15.3416 13.0899 16.0516 12.7908 16.7922 12.7908C17.5326 12.7908 18.2428 13.0899 18.7663 13.622C19.2901 14.1543 19.5841 14.8762 19.5841 15.6287C19.5841 16.3813 19.2901 17.1031 18.7663 17.6355C18.2428 18.1676 17.5326 18.4666 16.7922 18.4666Z" fill="white"/>
<path d="M24.5401 4.74576H23.5349L22.9207 2.87272C22.6295 2.03536 22.088 1.31183 21.3721 0.803028C20.6561 0.293974 19.8016 0.0255612 18.928 0.0348044H16.2198C15.2932 0.0274408 14.3903 0.332917 13.6528 0.902757C12.9152 1.47286 12.3842 2.27526 12.1433 3.1848L11.7665 4.7457H9.68628V4.27727C9.74774 3.21733 9.39508 2.1757 8.70496 1.37853C8.01483 0.581609 7.04309 0.09342 6.00099 0.0205078C4.96122 0.0969957 3.99318 0.586572 3.30587 1.38328C2.61879 2.18002 2.26795 3.2197 2.32946 4.27727V4.98681C1.68301 5.18563 1.11439 5.58565 0.703544 6.13035C0.292919 6.67503 0.0608596 7.33733 0.0400391 8.02333V23.7168C0.0690191 24.61 0.445519 25.4551 1.08657 26.0668C1.72764 26.6787 2.5811 27.007 3.46011 26.9804H24.5403C25.4192 27.007 26.2727 26.6787 26.9138 26.0668C27.5549 25.4551 27.9314 24.61 27.9603 23.7168V8.02333C27.9311 7.12874 27.5553 6.28238 26.9147 5.66831C26.2739 5.05424 25.4204 4.72264 24.5402 4.74569L24.5401 4.74576ZM6.00086 2.85849C6.41967 2.85849 6.89435 3.46873 6.89435 4.27733V4.74553L5.12144 4.74576V4.27733C5.12144 3.46873 5.6239 2.85849 6.00086 2.85849V2.85849ZM25.1683 23.7166C25.1683 23.9152 24.903 24.1423 24.5401 24.1423H3.45992C3.09698 24.1423 2.83172 23.9152 2.83172 23.7166V8.02316C2.83172 7.82457 3.09698 7.58323 3.45992 7.58323H12.8555C13.1743 7.59273 13.4867 7.49082 13.7408 7.29461C13.9948 7.0984 14.175 6.81977 14.2514 6.5048L14.8936 3.85144C14.9857 3.55261 15.1727 3.29298 15.4253 3.11338C15.6777 2.93356 15.9818 2.84401 16.2895 2.85826H18.998C19.2955 2.83831 19.5916 2.91551 19.8428 3.07894C20.0941 3.24237 20.2871 3.48323 20.3939 3.76641L21.3292 6.60432C21.422 6.88368 21.5985 7.12692 21.8336 7.29988C22.0689 7.47281 22.3512 7.56687 22.6415 7.56902H24.6656C25.0286 7.56902 25.2938 7.81012 25.2938 8.00894L25.1683 23.7166Z" fill="white"/>
</svg>
