<svg width="114" height="114" viewBox="0 0 114 114" fill="none" xmlns="http://www.w3.org/2000/svg">
<path d="M97.2955 16.7045C86.6167 6.00245 72.1225 0 57 0C41.8776 0 27.3833 6.00245 16.7045 16.7045C6.00245 27.3833 0 41.8776 0 57C0 72.1225 6.00245 86.6167 16.7045 97.2955C27.3833 107.998 41.8776 114 57 114C67.0041 114 76.822 111.371 85.5 106.369C94.178 101.367 101.367 94.1547 106.369 85.5C111.371 76.8453 114 67.0041 114 57C114 41.8776 107.998 27.3833 97.2955 16.7045ZM91.549 91.549C82.3825 100.716 69.9588 105.857 57 105.857C44.0412 105.857 31.6176 100.716 22.451 91.549C13.2845 82.3825 8.14286 69.9588 8.14286 57C8.14286 44.0412 13.2845 31.6176 22.451 22.451C31.6176 13.2845 44.0412 8.14286 57 8.14286C69.9588 8.14286 82.3825 13.2845 91.549 22.451C100.716 31.6176 105.857 44.0412 105.857 57C105.857 69.9588 100.716 82.3825 91.549 91.549Z" fill="#1B3C6D"/>
<path d="M73.2858 48.8567C71.1221 48.8567 69.0515 47.9958 67.516 46.4603C65.9804 44.9248 65.1196 42.8542 65.1196 40.6905C65.1196 38.5269 65.9804 36.4563 67.516 34.9207C69.0515 33.3852 71.1221 32.5244 73.2858 32.5244C75.4494 32.5244 77.52 33.3852 79.0555 34.9207C80.5911 36.4563 81.4519 38.5269 81.4519 40.6905C81.4519 42.8542 80.5911 44.9248 79.0555 46.4603C77.52 47.9958 75.4494 48.8567 73.2858 48.8567Z" fill="#1B3C6D"/>
<path d="M40.7142 48.8567C38.5505 48.8567 36.4799 47.9958 34.9444 46.4603C33.4089 44.9248 32.5481 42.8542 32.5481 40.6905C32.5481 38.5269 33.4089 36.4563 34.9444 34.9207C36.4799 33.3852 38.5505 32.5244 40.7142 32.5244C42.8779 32.5244 44.9485 33.3852 46.484 34.9207C48.0195 36.4563 48.8803 38.5269 48.8803 40.6905C48.8803 42.8542 48.0195 44.9248 46.484 46.4603C44.9485 47.9958 42.8779 48.8567 40.7142 48.8567Z" fill="#1B3C6D"/>
<path d="M89.9204 64.1886C89.9204 71.936 86.4073 79.1715 80.0326 84.569C73.8441 89.8037 65.678 92.6886 57 92.6886C48.322 92.6886 40.1559 89.8037 33.9673 84.569C27.5927 79.1715 24.0796 71.936 24.0796 64.1886C24.0796 61.9319 25.8943 60.1172 28.151 60.1172C30.4078 60.1172 32.2224 61.9319 32.2224 64.1886C32.2224 75.4258 43.3433 84.5458 57 84.5458C70.6567 84.5458 81.7775 75.4025 81.7775 64.1886C81.7775 61.9319 83.5922 60.1172 85.849 60.1172C88.1057 60.1172 89.9204 61.9319 89.9204 64.1886Z" fill="#1B3C6D"/>
</svg>
