<svg xmlns="http://www.w3.org/2000/svg" viewBox="0 0 805.01 274.57"><defs><style>.cls-1{fill:#fff;}.cls-2{fill:#d599ff;}</style></defs><g id="Layer_2" data-name="Layer 2"><g id="Logo"><path class="cls-1" d="M379.32,203.83,347.07,237a122.76,122.76,0,0,1-176.8,0A90.35,90.35,0,0,1,158,222c-2.11-3.06-.1-7.13,3.71-7.84a.3.3,0,0,0,.13,0,5.63,5.63,0,0,1,5.65,2.38,80.76,80.76,0,0,0,11,13.34,111.14,111.14,0,0,0,160.35,0l29.87-30.69a12.83,12.83,0,0,0,7.78,4.42,11.69,11.69,0,0,0,2.29.22Z"/><path class="cls-1" d="M690.19,75.44l-.15,0a5.58,5.58,0,0,1-5.6-2,108.53,108.53,0,0,0-8.44-9.7,111.17,111.17,0,0,0-160.35,0l-31.73,32c0-.07,0-.12,0-.2a13.16,13.16,0,0,0-5.63-9l29.14-29.9a122.8,122.8,0,0,1,176.83,0,124.17,124.17,0,0,1,9.22,10.63A5.14,5.14,0,0,1,690.19,75.44Z"/><path class="cls-2" d="M314.69,32.61a17.23,17.23,0,0,0-4.58,6.1,15.41,15.41,0,0,0-1.05,3,110,110,0,0,0-50.39-12.11,111.22,111.22,0,0,0-80.19,34.16c-2.46,2.52-6.36,7-8.54,9.65a5.59,5.59,0,0,1-5.78,1.83h0a5.16,5.16,0,0,1-3-8.31c2.36-2.92,6.43-7.54,9.12-10.28A122.78,122.78,0,0,1,314.69,32.61Z"/><path class="cls-2" d="M696.55,222.25A127.71,127.71,0,0,1,684.24,237a124.74,124.74,0,0,1-40.5,27.89,122.84,122.84,0,0,1-111-7.79c.25-.15.5-.3.75-.48a17.64,17.64,0,0,0,6.31-7.74,111.05,111.05,0,0,0,136.18-19,112.46,112.46,0,0,0,11.28-13.54,5.83,5.83,0,0,1,5.7-2.26A5.21,5.21,0,0,1,696.55,222.25Z"/><path class="cls-1" d="M15.57,203.84H13.28A13.29,13.29,0,0,1,0,190.56V97.5A13.29,13.29,0,0,1,13.28,84.22h2.29A13.29,13.29,0,0,1,28.85,97.5v93.06A13.29,13.29,0,0,1,15.57,203.84Z"/><path class="cls-1" d="M159.1,203.84h-9.49A13.31,13.31,0,0,1,139.37,199l-33-39.92c-7.93-9.59-23.51-4-23.51,8.46v23a13.29,13.29,0,0,1-13.28,13.28H67.1a13.29,13.29,0,0,1-13.28-13.28V97.5A13.29,13.29,0,0,1,67.1,84.22h9.5A13.26,13.26,0,0,1,86.83,89l33,39.84c7.94,9.57,23.51,4,23.51-8.48V97.5a13.28,13.28,0,0,1,13.28-13.28h2.46A13.28,13.28,0,0,1,172.38,97.5v93.06A13.28,13.28,0,0,1,159.1,203.84Z"/><path class="cls-1" d="M275.89,111H239.65a13.29,13.29,0,0,0-13.28,13.28v.88a13.28,13.28,0,0,0,13.28,13.28h25.86a13.28,13.28,0,0,1,13.28,13.28h0A13.27,13.27,0,0,1,265.51,165H239.65a13.29,13.29,0,0,0-13.28,13.28v12.32a13.28,13.28,0,0,1-13.28,13.28h-2.28a13.28,13.28,0,0,1-13.28-13.28V97.5a13.28,13.28,0,0,1,13.28-13.28h65.08A13.29,13.29,0,0,1,289.17,97.5v.18A13.29,13.29,0,0,1,275.89,111Z"/><path class="cls-2" d="M327.24,203.84H325a13.28,13.28,0,0,1-13.28-13.28V97.5A13.28,13.28,0,0,1,325,84.22h2.28A13.28,13.28,0,0,1,340.52,97.5v93.06A13.28,13.28,0,0,1,327.24,203.84Z"/><path class="cls-2" d="M484.05,97.5v93.07a13.28,13.28,0,0,1-13.29,13.26h-9.49A13.24,13.24,0,0,1,451,199l-33-39.92c-7.94-9.59-23.51-4-23.51,8.47v23a13.28,13.28,0,0,1-13.29,13.26h-2.46a11.69,11.69,0,0,1-2.29-.22,12.83,12.83,0,0,1-7.78-4.42,12.25,12.25,0,0,1-1.91-2.92,12.76,12.76,0,0,1-1.31-5.7V97.5a13.27,13.27,0,0,1,13.29-13.27h9.49A13.25,13.25,0,0,1,398.49,89l33,39.84c7.94,9.57,23.49,4,23.49-8.49V97.5A13.27,13.27,0,0,1,468.3,84.23h2.46a13.33,13.33,0,0,1,6.51,1.71,11.26,11.26,0,0,1,1,.63,13.16,13.16,0,0,1,5.63,9c0,.08,0,.13,0,.2A12.5,12.5,0,0,1,484.05,97.5Z"/><path class="cls-2" d="M524.77,203.84h-2.29a13.29,13.29,0,0,1-13.28-13.28V97.5a13.29,13.29,0,0,1,13.28-13.28h2.29A13.28,13.28,0,0,1,538.05,97.5v93.06A13.28,13.28,0,0,1,524.77,203.84Z"/><path class="cls-1" d="M658.45,111H642.62a13.28,13.28,0,0,0-13.28,13.28v66.32a13.29,13.29,0,0,1-13.28,13.28h-2.64a13.29,13.29,0,0,1-13.28-13.28V124.24A13.29,13.29,0,0,0,586.86,111H571a13.28,13.28,0,0,1-13.28-13.28V97.5A13.28,13.28,0,0,1,571,84.22h87.42A13.28,13.28,0,0,1,671.73,97.5v.18A13.28,13.28,0,0,1,658.45,111Z"/><path class="cls-1" d="M765.65,162.77v27.79a13.28,13.28,0,0,1-13.28,13.28h-2.46a13.28,13.28,0,0,1-13.28-13.28V162.75a13.25,13.25,0,0,0-2.33-7.51L699.87,105a13.28,13.28,0,0,1,11-20.79h.93a13.28,13.28,0,0,1,11,5.93l17.46,26.22a13.28,13.28,0,0,0,22.17-.08l17.06-26.06a13.27,13.27,0,0,1,11.11-6h1.11a13.28,13.28,0,0,1,10.93,20.83L768,155.22A13.3,13.3,0,0,0,765.65,162.77Z"/><path class="cls-2" d="M343.65,46a17.56,17.56,0,0,1-35.12,0,16.77,16.77,0,0,1,.53-4.22,15.41,15.41,0,0,1,1.05-3,17.58,17.58,0,0,1,16-10.3A17.54,17.54,0,0,1,343.65,46Z"/><path class="cls-2" d="M541.18,242.12a17.15,17.15,0,0,1-.68,4.84,13.08,13.08,0,0,1-.68,1.91,17.64,17.64,0,0,1-6.31,7.74c-.25.18-.5.33-.75.48a17.54,17.54,0,1,1,8.42-15Z"/></g><g id="Estrelas"><g id="_3_estrelas" data-name="3 estrelas"><polygon class="cls-2" points="395.01 32 400.25 42.61 411.95 44.31 403.49 52.56 405.48 64.22 395.01 58.72 384.54 64.22 386.54 52.56 378.07 44.31 389.78 42.61 395.01 32"/><polygon class="cls-2" points="453.01 32 458.25 42.61 469.95 44.31 461.49 52.56 463.48 64.22 453.01 58.72 442.54 64.22 444.54 52.56 436.07 44.31 447.78 42.61 453.01 32"/><polygon class="cls-2" points="426.01 0 431.25 10.61 442.95 12.31 434.49 20.57 436.48 32.22 426.01 26.72 415.54 32.22 417.54 20.57 409.07 12.31 420.78 10.61 426.01 0"/></g></g></g></svg>