<svg width="26" height="26" viewBox="0 0 26 26" fill="none" xmlns="http://www.w3.org/2000/svg">
<path d="M22.0738 25.9629H3.926C2.89455 25.9629 1.90539 25.5532 1.176 24.824C0.446832 24.0946 0.0371094 23.1054 0.0371094 22.074V3.92622C0.0371094 2.89478 0.446832 1.90561 1.176 1.17622C1.90539 0.447058 2.89455 0.0373344 3.926 0.0373344H22.0738C23.1052 0.0373344 24.0944 0.447058 24.8238 1.17622C25.5529 1.90561 25.9627 2.89478 25.9627 3.92622V22.074C25.9627 23.1054 25.5529 24.0946 24.8238 24.824C24.0944 25.5532 23.1052 25.9629 22.0738 25.9629ZM23.37 3.92567L23.3702 3.92588C23.3702 3.58192 23.2335 3.25227 22.9904 3.00922C22.7474 2.76616 22.4177 2.62945 22.0738 2.62945H3.926C3.58203 2.62945 3.25239 2.76616 3.00933 3.00922C2.76628 3.25227 2.62956 3.58194 2.62956 3.92588V22.0737C2.62956 22.4176 2.76628 22.7473 3.00933 22.9903C3.25239 23.2334 3.58205 23.3701 3.926 23.3701H22.0738C22.4177 23.3701 22.7474 23.2334 22.9904 22.9903C23.2335 22.7473 23.3702 22.4176 23.3702 22.0737L23.37 3.92567Z" fill="white"/>
<path d="M18.1848 19.4814H7.81483C7.35173 19.4814 6.92378 19.2343 6.69222 18.8332C6.46067 18.4322 6.46067 17.9381 6.69222 17.537C6.92378 17.136 7.35172 16.8888 7.81483 16.8888H18.1854H18.1852C18.6483 16.8888 19.0762 17.136 19.3078 17.537C19.5393 17.938 19.5393 18.4322 19.3078 18.8332C19.0762 19.2343 18.6483 19.4814 18.1852 19.4814H18.1848Z" fill="white"/>
<path d="M7.81483 11.7039H12.9999C13.463 11.7039 13.891 11.9509 14.1226 12.3519C14.3541 12.753 14.3541 13.2473 14.1226 13.6484C13.891 14.0494 13.4631 14.2964 12.9999 14.2964H7.81483C7.35173 14.2964 6.92378 14.0494 6.69222 13.6484C6.46067 13.2473 6.46067 12.753 6.69222 12.3519C6.92378 11.9509 7.35172 11.7039 7.81483 11.7039Z" fill="white"/>
<path d="M18.1848 9.11133H7.81483C7.35173 9.11133 6.92378 8.86415 6.69222 8.46311C6.46067 8.06206 6.46067 7.56794 6.69222 7.16688C6.92378 6.76584 7.35172 6.51866 7.81483 6.51866H18.1854H18.1852C18.6483 6.51866 19.0762 6.76584 19.3078 7.16688C19.5393 7.56793 19.5393 8.06205 19.3078 8.46311C19.0762 8.86415 18.6483 9.11133 18.1852 9.11133H18.1848Z" fill="white"/>
</svg>
