<svg width="114" height="114" viewBox="0 0 114 114" fill="none" xmlns="http://www.w3.org/2000/svg">
<path d="M97.2955 16.7045C86.6167 6.00245 72.1225 0 57 0C41.8776 0 27.3833 6.00245 16.7045 16.7045C6.00245 27.3833 0 41.8776 0 57C0 72.1225 6.00245 86.6167 16.7045 97.2955C27.3833 107.998 41.8776 114 57 114C67.0041 114 76.822 111.371 85.5 106.369C94.178 101.367 101.367 94.1547 106.369 85.5C111.371 76.8453 114 67.0041 114 57C114 41.8776 107.998 27.3833 97.2955 16.7045ZM91.549 91.549C82.3825 100.716 69.9588 105.857 57 105.857C44.0412 105.857 31.6176 100.716 22.451 91.549C13.2845 82.3825 8.14286 69.9588 8.14286 57C8.14286 44.0412 13.2845 31.6176 22.451 22.451C31.6176 13.2845 44.0412 8.14286 57 8.14286C69.9588 8.14286 82.3825 13.2845 91.549 22.451C100.716 31.6176 105.857 44.0412 105.857 57C105.857 69.9588 100.716 82.3825 91.549 91.549Z" fill="#31859C"/>
<path d="M73.2858 48.8567C71.1221 48.8567 69.0515 47.9958 67.516 46.4603C65.9804 44.9248 65.1196 42.8542 65.1196 40.6905C65.1196 38.5269 65.9804 36.4563 67.516 34.9207C69.0515 33.3852 71.1221 32.5244 73.2858 32.5244C75.4494 32.5244 77.52 33.3852 79.0555 34.9207C80.5911 36.4563 81.4519 38.5269 81.4519 40.6905C81.4519 42.8542 80.5911 44.9248 79.0555 46.4603C77.52 47.9958 75.4494 48.8567 73.2858 48.8567Z" fill="#31859C"/>
<path d="M40.7142 48.8567C38.5505 48.8567 36.4799 47.9958 34.9444 46.4603C33.4089 44.9248 32.5481 42.8542 32.5481 40.6905C32.5481 38.5269 33.4089 36.4563 34.9444 34.9207C36.4799 33.3852 38.5505 32.5244 40.7142 32.5244C42.8779 32.5244 44.9485 33.3852 46.484 34.9207C48.0195 36.4563 48.8803 38.5269 48.8803 40.6905C48.8803 42.8542 48.0195 44.9248 46.484 46.4603C44.9485 47.9958 42.8779 48.8567 40.7142 48.8567Z" fill="#31859C"/>
<path d="M81.894 72.8208C79.4976 78.1719 73.2393 84.5465 57.0001 84.5465C40.7609 84.5465 34.5025 78.1719 32.1062 72.8208C31.1756 70.7735 32.1062 68.3539 34.1536 67.4465C36.2009 66.5159 38.6205 67.4465 39.5278 69.4939C42.087 75.1939 50.4393 76.4037 56.9768 76.4037C63.5144 76.4037 71.8666 75.2172 74.4258 69.4939C75.3331 67.4465 77.7527 66.5159 79.8001 67.4465C81.894 68.3772 82.8013 70.7735 81.894 72.8208Z" fill="#31859C"/>
</svg>
