<svg width="114" height="114" viewBox="0 0 114 114" fill="none" xmlns="http://www.w3.org/2000/svg">
<path d="M57 114C41.8776 114 27.3833 107.998 16.7045 97.2955C6.00245 86.6167 0 72.1225 0 57C0 41.8776 6.00245 27.3833 16.7045 16.7045C27.3833 6.00245 41.8776 0 57 0C72.1225 0 86.6167 6.00245 97.2955 16.7045C107.998 27.3833 114 41.8776 114 57C114 67.0041 111.371 76.8453 106.369 85.5C101.367 94.1547 94.178 101.367 85.5 106.369C76.822 111.371 67.0041 114 57 114ZM57 8.14286C44.0412 8.14286 31.6176 13.2845 22.451 22.451C13.2845 31.6176 8.14286 44.0412 8.14286 57C8.14286 69.9588 13.2845 82.3825 22.451 91.549C31.6176 100.716 44.0412 105.857 57 105.857C69.9588 105.857 82.3825 100.716 91.549 91.549C100.716 82.3825 105.857 69.9588 105.857 57C105.857 44.0412 100.716 31.6176 91.549 22.451C82.3825 13.2845 69.9588 8.14286 57 8.14286Z" fill="#B7CDED"/>
<path d="M73.2858 48.8567C71.1221 48.8567 69.0515 47.9958 67.516 46.4603C65.9804 44.9248 65.1196 42.8542 65.1196 40.6905C65.1196 38.5269 65.9804 36.4563 67.516 34.9207C69.0515 33.3852 71.1221 32.5244 73.2858 32.5244C75.4494 32.5244 77.52 33.3852 79.0555 34.9207C80.5911 36.4563 81.4519 38.5269 81.4519 40.6905C81.4519 42.8542 80.5911 44.9248 79.0555 46.4603C77.52 47.9958 75.4494 48.8567 73.2858 48.8567Z" fill="#B7CDED"/>
<path d="M40.7142 48.8567C38.5505 48.8567 36.4799 47.9958 34.9444 46.4603C33.4089 44.9248 32.5481 42.8542 32.5481 40.6905C32.5481 38.5269 33.4089 36.4563 34.9444 34.9207C36.4799 33.3852 38.5505 32.5244 40.7142 32.5244C42.8779 32.5244 44.9485 33.3852 46.484 34.9207C48.0195 36.4563 48.8803 38.5269 48.8803 40.6905C48.8803 42.8542 48.0195 44.9248 46.484 46.4603C44.9485 47.9958 42.8779 48.8567 40.7142 48.8567Z" fill="#B7CDED"/>
<path d="M80.5212 79.7766H33.758C31.5012 79.7766 29.6865 77.962 29.6865 75.7052C29.6865 73.4485 31.5012 71.6338 33.758 71.6338H80.5212C82.778 71.6338 84.5926 73.4485 84.5926 75.7052C84.5926 77.962 82.778 79.7766 80.5212 79.7766Z" fill="#B7CDED"/>
</svg>
