<svg width="34" height="28" viewBox="0 0 34 28" fill="none" xmlns="http://www.w3.org/2000/svg">
<path d="M27.0381 7.45316V5.46179C27.0381 4.0716 26.4953 2.73817 25.5287 1.75521C24.5624 0.772183 23.2519 0.219727 21.8852 0.219727H5.42269C4.05593 0.219727 2.74538 0.772198 1.77886 1.75521C0.812549 2.73824 0.269775 4.07168 0.269775 5.46179V22.2091C0.269775 23.5993 0.812571 24.9327 1.77886 25.9157C2.74538 26.8987 4.05593 27.4511 5.42269 27.4511H21.8852H21.8849C23.2516 27.4511 24.5622 26.8987 25.5284 25.9157C26.495 24.9326 27.0378 23.5992 27.0378 22.2091V20.2177C28.5743 20.7705 30.2792 20.5297 31.6096 19.5721C32.9403 18.6144 33.7306 17.0593 33.7298 15.401V12.2696C33.7306 10.6114 32.9402 9.05621 31.6096 8.09857C30.2792 7.14093 28.5743 6.90015 27.0378 7.45292L27.0381 7.45316ZM29.6146 16.8312C29.1992 17.1082 28.6841 17.1831 28.2091 17.0355L26.4191 15.5377C26.1726 15.3368 25.8752 15.2111 25.5615 15.1749C25.2475 15.1388 24.9302 15.1937 24.6456 15.3336C24.3611 15.4715 24.1205 15.6884 23.9516 15.9593C23.783 16.2306 23.6931 16.5446 23.692 16.8654V22.2095C23.692 22.697 23.5018 23.1646 23.1629 23.509C22.824 23.8538 22.3644 24.0476 21.8852 24.0476H5.42271C4.94349 24.0476 4.48386 23.8538 4.145 23.509C3.8061 23.1646 3.61565 22.697 3.61565 22.2095V5.46223C3.61565 4.97472 3.8061 4.50714 4.145 4.16271C4.4839 3.81794 4.94353 3.6242 5.42271 3.6242H21.8852H21.8849C22.3641 3.6242 22.8238 3.81794 23.1626 4.16271C23.5015 4.50719 23.6917 4.97476 23.6917 5.46223V10.8063C23.6928 11.1272 23.7827 11.4412 23.9513 11.7124C24.1202 11.9834 24.3608 12.2002 24.6454 12.3381C24.9299 12.478 25.2472 12.533 25.5612 12.4968C25.8749 12.4606 26.1723 12.335 26.4188 12.1341L28.2088 10.6363C28.6838 10.4887 29.1989 10.5636 29.6143 10.8405C30.0929 11.1531 30.3828 11.6916 30.3839 12.2703C30.3839 14.772 30.7519 16.0997 29.6143 16.8314L29.6146 16.8312Z" fill="white"/>
</svg>
